<?xml version="1.0" encoding="UTF-8" standalone="no"?>
<!DOCTYPE svg PUBLIC "-//W3C//DTD SVG 1.1//EN" "http://www.w3.org/Graphics/SVG/1.1/DTD/svg11.dtd">
<svg width="100%" height="100%" viewBox="0 0 1236 1280" version="1.1" xmlns="http://www.w3.org/2000/svg" xmlns:xlink="http://www.w3.org/1999/xlink" xml:space="preserve" xmlns:serif="http://www.serif.com/" style="fill-rule:evenodd;clip-rule:evenodd;stroke-linejoin:round;stroke-miterlimit:2;">
    <g id="logo" transform="matrix(1,0,0,1,-20,582.5)">
        <g transform="matrix(1,0,0,1,20,-582.5)">
            <path d="M890,1280L0,1280L0,665L100.894,665C113.704,843.745 262.986,985 445,985C627.014,985 776.296,843.745 789.106,665L890,665L890,1280ZM890,615L789.106,615C776.296,436.255 627.014,295 445,295C262.986,295 113.704,436.255 100.894,615L0,615L0,0L890,0L890,615Z" style="fill:white;"/>
        </g>
        <g transform="matrix(1,0,0,1,20,-582.5)">
            <path d="M738.454,665C723.102,788.492 595.243,885 440,885C284.757,885 156.898,788.492 141.546,665L738.454,665ZM141.546,615C156.898,491.508 284.757,395 440,395C595.243,395 723.102,491.508 738.454,615L141.546,615Z" style="fill:white;"/>
        </g>
    </g>
    <g transform="matrix(7.97432e-17,-1.30231,0.999298,6.11893e-17,481.634,2017.97)">
        <g transform="matrix(408,0,0,408,543,750)">
            <path d="M0.058,-0.714L0.096,-0.714L0.096,-0.241L0.413,-0.514L0.468,-0.514L0.243,-0.322L0.484,-0L0.432,-0L0.213,-0.293L0.096,-0.194L0.096,-0L0.058,-0L0.058,-0.714Z" style="fill:white;fill-rule:nonzero;"/>
        </g>
        <g transform="matrix(408,0,0,408,731.904,750)">
            <path d="M0.397,-0.102L0.395,-0.102C0.389,-0.087 0.38,-0.072 0.369,-0.059C0.358,-0.045 0.344,-0.033 0.328,-0.022C0.311,-0.011 0.293,-0.003 0.272,0.003C0.251,0.009 0.229,0.012 0.204,0.012C0.149,0.012 0.107,0 0.077,-0.024C0.047,-0.047 0.032,-0.084 0.032,-0.133C0.032,-0.163 0.038,-0.188 0.05,-0.207C0.062,-0.226 0.077,-0.241 0.096,-0.252C0.114,-0.263 0.134,-0.27 0.157,-0.275C0.179,-0.28 0.2,-0.283 0.221,-0.285L0.28,-0.29C0.307,-0.292 0.329,-0.295 0.345,-0.3C0.36,-0.304 0.372,-0.31 0.38,-0.318C0.388,-0.325 0.393,-0.335 0.395,-0.347C0.397,-0.359 0.398,-0.374 0.398,-0.392C0.398,-0.406 0.395,-0.419 0.39,-0.431C0.385,-0.443 0.376,-0.454 0.365,-0.463C0.354,-0.472 0.339,-0.48 0.321,-0.485C0.303,-0.49 0.281,-0.493 0.255,-0.493C0.209,-0.493 0.172,-0.482 0.144,-0.459C0.115,-0.436 0.1,-0.402 0.097,-0.356L0.059,-0.356C0.062,-0.413 0.08,-0.455 0.114,-0.484C0.147,-0.512 0.195,-0.526 0.257,-0.526C0.319,-0.526 0.364,-0.514 0.393,-0.49C0.421,-0.465 0.435,-0.433 0.435,-0.394L0.435,-0.095C0.435,-0.088 0.435,-0.08 0.436,-0.073C0.436,-0.066 0.437,-0.059 0.439,-0.053C0.441,-0.047 0.444,-0.042 0.449,-0.039C0.454,-0.035 0.46,-0.033 0.469,-0.033C0.476,-0.033 0.485,-0.034 0.497,-0.036L0.497,-0.004C0.487,-0.001 0.477,-0 0.466,-0C0.451,-0 0.439,-0.002 0.43,-0.006C0.421,-0.01 0.414,-0.015 0.409,-0.022C0.404,-0.029 0.401,-0.037 0.4,-0.046C0.398,-0.055 0.397,-0.064 0.397,-0.075L0.397,-0.102ZM0.397,-0.292C0.388,-0.281 0.374,-0.273 0.355,-0.269C0.335,-0.265 0.314,-0.262 0.291,-0.26L0.227,-0.254C0.208,-0.252 0.19,-0.249 0.171,-0.246C0.152,-0.242 0.136,-0.236 0.121,-0.227C0.106,-0.218 0.093,-0.206 0.084,-0.192C0.075,-0.177 0.07,-0.157 0.07,-0.133C0.07,-0.095 0.082,-0.067 0.106,-0.049C0.13,-0.03 0.163,-0.021 0.205,-0.021C0.248,-0.021 0.283,-0.029 0.308,-0.045C0.333,-0.06 0.353,-0.078 0.366,-0.099C0.379,-0.119 0.388,-0.138 0.392,-0.158C0.395,-0.177 0.397,-0.189 0.397,-0.196L0.397,-0.292Z" style="fill:white;fill-rule:nonzero;"/>
        </g>
        <g transform="matrix(408,0,0,408,935.904,750)">
            <path d="M0.056,-0.514L0.094,-0.514L0.094,-0.404L0.096,-0.404C0.103,-0.423 0.112,-0.44 0.125,-0.456C0.137,-0.471 0.151,-0.483 0.168,-0.494C0.184,-0.505 0.202,-0.513 0.221,-0.518C0.24,-0.523 0.26,-0.526 0.28,-0.526C0.31,-0.526 0.335,-0.522 0.357,-0.515C0.378,-0.508 0.395,-0.498 0.408,-0.486C0.421,-0.474 0.432,-0.46 0.44,-0.446C0.447,-0.431 0.453,-0.415 0.456,-0.4C0.459,-0.385 0.461,-0.37 0.462,-0.356C0.463,-0.341 0.463,-0.329 0.463,-0.318L0.463,-0L0.425,-0L0.425,-0.325C0.425,-0.338 0.424,-0.354 0.422,-0.373C0.42,-0.392 0.414,-0.411 0.405,-0.429C0.395,-0.446 0.38,-0.461 0.361,-0.474C0.341,-0.487 0.314,-0.493 0.279,-0.493C0.25,-0.493 0.224,-0.488 0.201,-0.477C0.178,-0.466 0.159,-0.452 0.143,-0.433C0.127,-0.413 0.115,-0.391 0.107,-0.365C0.098,-0.338 0.094,-0.309 0.094,-0.278L0.094,-0L0.056,-0L0.056,-0.514Z" style="fill:white;fill-rule:nonzero;"/>
        </g>
        <g transform="matrix(408,0,0,408,1147.66,750)">
            <path d="M0.074,-0.171C0.075,-0.147 0.081,-0.126 0.09,-0.108C0.099,-0.089 0.112,-0.074 0.127,-0.061C0.141,-0.048 0.159,-0.038 0.179,-0.031C0.199,-0.024 0.221,-0.021 0.244,-0.021C0.261,-0.021 0.279,-0.023 0.298,-0.026C0.317,-0.028 0.334,-0.034 0.351,-0.042C0.367,-0.05 0.38,-0.061 0.391,-0.076C0.402,-0.09 0.407,-0.108 0.407,-0.13C0.407,-0.159 0.398,-0.18 0.381,-0.195C0.364,-0.21 0.342,-0.221 0.316,-0.229C0.289,-0.237 0.261,-0.243 0.231,-0.249C0.2,-0.254 0.172,-0.261 0.146,-0.271C0.119,-0.281 0.097,-0.295 0.08,-0.314C0.063,-0.332 0.054,-0.359 0.054,-0.394C0.054,-0.419 0.06,-0.44 0.071,-0.458C0.082,-0.474 0.097,-0.488 0.115,-0.498C0.132,-0.508 0.152,-0.515 0.174,-0.52C0.196,-0.524 0.218,-0.526 0.24,-0.526C0.267,-0.526 0.292,-0.523 0.315,-0.517C0.338,-0.511 0.359,-0.501 0.376,-0.488C0.393,-0.475 0.406,-0.458 0.416,-0.437C0.425,-0.416 0.43,-0.391 0.43,-0.362L0.392,-0.362C0.392,-0.385 0.388,-0.405 0.381,-0.422C0.373,-0.439 0.362,-0.452 0.349,-0.463C0.335,-0.473 0.319,-0.481 0.3,-0.486C0.281,-0.491 0.261,-0.493 0.24,-0.493C0.223,-0.493 0.205,-0.491 0.188,-0.488C0.17,-0.485 0.154,-0.479 0.14,-0.471C0.126,-0.463 0.115,-0.453 0.106,-0.44C0.096,-0.427 0.092,-0.412 0.092,-0.394C0.092,-0.373 0.097,-0.357 0.107,-0.344C0.117,-0.331 0.13,-0.321 0.147,-0.314C0.163,-0.306 0.181,-0.3 0.202,-0.295C0.222,-0.29 0.242,-0.286 0.263,-0.281C0.288,-0.276 0.312,-0.271 0.335,-0.265C0.357,-0.258 0.376,-0.25 0.393,-0.239C0.409,-0.228 0.422,-0.213 0.431,-0.196C0.44,-0.179 0.445,-0.157 0.445,-0.13C0.445,-0.102 0.439,-0.079 0.426,-0.061C0.413,-0.043 0.397,-0.029 0.378,-0.018C0.359,-0.007 0.337,0.001 0.314,0.006C0.29,0.01 0.267,0.012 0.244,0.012C0.215,0.012 0.188,0.008 0.163,0.001C0.137,-0.007 0.116,-0.019 0.097,-0.035C0.078,-0.05 0.064,-0.069 0.053,-0.092C0.042,-0.115 0.037,-0.141 0.036,-0.171L0.074,-0.171Z" style="fill:white;fill-rule:nonzero;"/>
        </g>
        <g transform="matrix(408,0,0,408,1343.9,750)">
            <path d="M0.032,-0.257C0.032,-0.294 0.037,-0.328 0.048,-0.361C0.058,-0.393 0.073,-0.421 0.093,-0.446C0.113,-0.471 0.138,-0.49 0.167,-0.505C0.196,-0.519 0.23,-0.526 0.268,-0.526C0.306,-0.526 0.34,-0.519 0.369,-0.505C0.398,-0.49 0.423,-0.471 0.443,-0.446C0.463,-0.421 0.478,-0.393 0.489,-0.361C0.499,-0.328 0.504,-0.294 0.504,-0.257C0.504,-0.22 0.499,-0.186 0.489,-0.153C0.478,-0.12 0.463,-0.092 0.443,-0.068C0.423,-0.043 0.398,-0.024 0.369,-0.01C0.34,0.005 0.306,0.012 0.268,0.012C0.23,0.012 0.196,0.005 0.167,-0.01C0.138,-0.024 0.113,-0.043 0.093,-0.068C0.073,-0.092 0.058,-0.12 0.048,-0.153C0.037,-0.186 0.032,-0.22 0.032,-0.257ZM0.07,-0.257C0.07,-0.226 0.074,-0.197 0.083,-0.169C0.092,-0.14 0.104,-0.115 0.121,-0.093C0.138,-0.071 0.158,-0.054 0.183,-0.041C0.208,-0.028 0.236,-0.021 0.268,-0.021C0.3,-0.021 0.328,-0.028 0.353,-0.041C0.378,-0.054 0.398,-0.071 0.415,-0.093C0.432,-0.115 0.444,-0.14 0.453,-0.169C0.462,-0.197 0.466,-0.226 0.466,-0.257C0.466,-0.288 0.462,-0.317 0.453,-0.346C0.444,-0.374 0.432,-0.399 0.415,-0.421C0.398,-0.443 0.378,-0.46 0.353,-0.474C0.328,-0.487 0.3,-0.493 0.268,-0.493C0.236,-0.493 0.208,-0.487 0.183,-0.474C0.158,-0.46 0.138,-0.443 0.121,-0.421C0.104,-0.399 0.092,-0.374 0.083,-0.346C0.074,-0.317 0.07,-0.288 0.07,-0.257Z" style="fill:white;fill-rule:nonzero;"/>
        </g>
    </g>
</svg>
