<?xml version="1.0" encoding="UTF-8" standalone="no"?>
<!DOCTYPE svg PUBLIC "-//W3C//DTD SVG 1.1//EN" "http://www.w3.org/Graphics/SVG/1.1/DTD/svg11.dtd">
<svg width="100%" height="100%" viewBox="0 0 172 172" version="1.1" xmlns="http://www.w3.org/2000/svg" xmlns:xlink="http://www.w3.org/1999/xlink" xml:space="preserve" xmlns:serif="http://www.serif.com/" style="fill-rule:evenodd;clip-rule:evenodd;stroke-linejoin:round;stroke-miterlimit:1.41421;">
    <path d="M85.65,0C132.922,0 171.3,38.378 171.3,85.65C171.3,132.922 132.922,171.3 85.65,171.3C38.378,171.3 0,132.922 0,85.65C0,38.378 38.378,0 85.65,0ZM101.615,95.422C101.145,94.76 100.557,94.189 99.88,93.74C99.19,93.3 97.51,92.71 96.38,92.1C95.208,91.461 94.094,90.722 93.05,89.89C91.988,89.058 91.004,88.131 90.11,87.12C89.307,86.235 88.222,85.655 87.04,85.48C85.884,85.308 84.705,85.383 83.58,85.7C82.488,85.996 81.468,86.51 80.58,87.21C79.794,87.792 79.219,88.613 78.94,89.55C78.693,90.088 78.837,90.729 79.29,91.11C79.841,91.421 80.417,91.689 81.01,91.91C81.739,92.222 82.414,92.647 83.01,93.17C83.855,94.02 84.426,95.103 84.65,96.28C85.068,98.02 85.213,99.815 85.08,101.6C84.961,103.522 84.625,105.424 84.08,107.27C83.637,108.9 82.905,110.438 81.92,111.81C81.222,112.915 80.025,113.611 78.72,113.67C77.744,113.624 76.794,113.342 75.95,112.85C74.805,112.212 73.804,111.343 73.01,110.3C71.999,108.979 71.236,107.484 70.76,105.89C70.148,103.842 69.885,101.705 69.98,99.57C72.436,96.526 74.636,93.285 76.56,89.88C77.42,88.44 78.27,86.853 79.11,85.12C79.95,83.387 80.73,81.597 81.45,79.75C82.181,77.871 82.802,75.951 83.31,74C83.833,71.997 84.211,69.958 84.44,67.9C84.612,66.48 84.698,65.051 84.7,63.62C84.709,62.277 84.578,60.936 84.31,59.62C84.08,58.453 83.64,57.339 83.01,56.33C82.346,55.326 81.437,54.507 80.37,53.95C79.165,53.351 77.823,53.082 76.48,53.17C74.932,53.24 73.414,53.624 72.02,54.3C70.457,55.05 69.036,56.065 67.82,57.3C66.442,58.703 65.379,60.384 64.7,62.23C63.029,65.716 61.713,69.361 60.77,73.11C59.699,77.218 59.002,81.416 58.69,85.65C58.371,89.802 58.458,93.975 58.95,98.11C59.269,101.103 59.963,104.04 61.014,106.855C60.723,107.155 60.463,107.485 60.24,107.84C59.355,109.136 58.202,110.227 56.86,111.04C55.515,111.74 53.925,111.802 52.53,111.21C51.644,110.832 50.931,110.136 50.53,109.26C49.927,108.1 49.489,106.861 49.23,105.58C48.896,104.025 48.679,102.447 48.58,100.86C48.467,99.153 48.423,97.45 48.45,95.75C48.477,94.05 48.577,92.463 48.75,90.99C48.885,89.753 49.088,88.524 49.36,87.31C49.88,85.523 49.91,84.267 49.45,83.54C49.015,82.841 48.271,82.391 47.45,82.33C46.483,82.253 45.51,82.372 44.59,82.68C43.749,82.934 42.924,83.238 42.12,83.59C41.414,84.003 40.82,84.584 40.39,85.28C39.816,86.164 39.337,87.106 38.96,88.09C38.51,89.244 38.149,90.431 37.88,91.64C37.583,92.961 37.352,94.296 37.19,95.64C37.057,98.703 37.09,101.771 37.29,104.83C37.426,107.048 37.832,109.241 38.5,111.36C38.999,112.968 39.873,114.436 41.05,115.64C42.257,116.775 43.707,117.62 45.29,118.11C46.936,118.747 48.698,119.03 50.46,118.94C52.155,118.832 53.814,118.405 55.35,117.68C56.902,116.937 58.308,115.921 59.5,114.68C60.747,113.398 61.777,111.922 62.55,110.311C63.884,112.748 65.722,114.88 67.95,116.56C70.774,118.563 74.18,119.582 77.64,119.46C79.92,119.527 82.185,119.068 84.26,118.12C85.97,117.307 87.51,116.177 88.8,114.79C89.976,113.517 90.926,112.052 91.61,110.46C92.221,109.064 92.699,107.615 93.04,106.13C93.311,104.703 93.428,103.252 93.39,101.8C93.358,100.787 93.214,99.781 92.96,98.8C92.761,97.894 92.377,97.039 91.83,96.29C92.6,96.762 93.41,97.167 94.25,97.5C94.929,97.783 95.636,97.991 96.36,98.12C97.04,98.25 98.75,98.13 98.94,98.82C98.981,98.973 99.033,99.126 99.093,99.28C99.107,99.363 99.123,99.447 99.14,99.53C99.856,102.422 100.806,105.252 101.98,107.99C102.797,109.524 103.805,110.949 104.98,112.23C106.228,113.624 107.653,114.848 109.22,115.87C110.84,116.922 112.625,117.696 114.5,118.16C116.527,118.655 118.633,118.73 120.69,118.38C122.562,118.009 124.402,117.488 126.19,116.82C128.006,116.157 129.746,115.302 131.38,114.27C132.911,113.306 134.306,112.142 135.53,110.81C136.659,109.6 137.527,108.17 138.08,106.61C138.9,104.373 139.241,101.988 139.08,99.61C138.943,97.576 138.399,95.59 137.48,93.77C136.579,92.03 135.362,90.474 133.89,89.18C132.415,87.869 130.77,86.763 129,85.89C127.265,85.032 125.436,84.378 123.55,83.94C121.809,83.522 120.02,83.333 118.23,83.38C119.325,82.649 120.332,81.793 121.23,80.83C122.363,79.656 123.403,78.396 124.34,77.06C125.328,75.665 126.198,74.19 126.94,72.65C127.661,71.183 128.128,69.604 128.32,67.98C128.519,66.119 128.223,64.239 127.46,62.53C126.747,60.959 125.566,59.646 124.08,58.77C122.429,57.834 120.568,57.328 118.67,57.3C114.806,57.137 111.019,58.437 108.07,60.94C106.85,61.904 105.734,62.993 104.74,64.19C103.862,65.21 103.214,66.407 102.84,67.7C102.506,68.809 102.788,70.015 103.58,70.86C103.98,71.422 104.67,71.706 105.35,71.59C105.993,71.415 106.577,71.07 107.04,70.59C107.573,70.084 108.065,69.535 108.51,68.95C108.857,68.479 109.235,68.032 109.64,67.61C110.278,66.928 111.025,66.357 111.85,65.92C112.681,65.469 113.569,65.133 114.49,64.92C115.254,64.726 116.043,64.652 116.83,64.7C117.421,64.689 117.966,65.027 118.22,65.56C119.022,66.671 119.333,68.064 119.08,69.41C118.744,70.683 118.106,71.856 117.22,72.83C116.209,73.983 115.095,75.041 113.89,75.99C112.623,77.003 111.47,77.97 110.43,78.89C109.508,79.679 108.706,80.599 108.05,81.62C107.487,82.408 107.487,83.472 108.05,84.26C108.599,85.505 109.632,86.473 110.91,86.94C112.209,87.361 113.55,87.636 114.91,87.76C116.35,87.907 117.777,88.093 119.19,88.32C120.647,88.577 121.991,89.276 123.04,90.32C124.434,91.573 125.453,93.191 125.98,94.99C126.496,96.716 126.585,98.542 126.24,100.31C125.893,102.069 125.12,103.717 123.99,105.11C122.806,106.559 121.202,107.607 119.4,108.11C117.384,108.892 115.195,109.123 113.06,108.78C111.388,108.432 109.818,107.707 108.47,106.66C107.249,105.703 106.197,104.546 105.36,103.24C104.55,101.97 102.51,96.72 101.96,95.86C101.859,95.702 101.743,95.555 101.615,95.422ZM68.6,92.52L68.59,92.52L68.6,92.506C68.6,88.651 68.77,84.866 69.11,81.15C69.283,79.597 69.487,77.953 69.72,76.22C69.953,74.487 70.243,72.783 70.59,71.11C70.933,69.503 71.357,67.914 71.86,66.35C72.32,64.868 72.885,63.421 73.55,62.02C73.958,61.035 74.613,60.17 75.45,59.51C75.946,59.111 76.646,59.075 77.18,59.42C77.818,59.964 78.247,60.714 78.39,61.54C78.694,62.85 78.782,64.201 78.65,65.54C78.417,69.279 77.718,72.974 76.57,76.54C75.617,79.462 74.488,82.324 73.19,85.11C71.852,87.689 70.317,90.162 68.6,92.506L68.6,92.52ZM41.08,64.74C41.622,63.546 42.699,62.678 43.98,62.4C45.237,62.111 46.548,62.142 47.79,62.49C48.985,62.811 50.083,63.419 50.99,64.26C51.835,64.968 52.246,66.072 52.07,67.16C51.804,68.543 51.011,69.769 49.86,70.58C48.62,71.533 46.76,71.893 44.28,71.66C43.593,71.605 42.941,71.331 42.42,70.88C41.866,70.411 41.411,69.836 41.08,69.19C40.729,68.505 40.538,67.749 40.52,66.98C40.487,66.195 40.682,65.417 41.08,64.74Z" style="fill:white;"/>
</svg>
