<svg viewBox="0 0 172 172" xmlns="http://www.w3.org/2000/svg" fill-rule="evenodd" clip-rule="evenodd" stroke-linejoin="round" stroke-miterlimit="1.414"><path d="M85.65 0c47.272 0 85.65 38.378 85.65 85.65 0 47.272-38.378 85.65-85.65 85.65C38.378 171.3 0 132.922 0 85.65 0 38.378 38.378 0 85.65 0zm15.965 95.422a6.61 6.61 0 00-1.735-1.682c-.69-.44-2.37-1.03-3.5-1.64a23.034 23.034 0 01-3.33-2.21 22.201 22.201 0 01-2.94-2.77 5.168 5.168 0 00-3.07-1.64 8.269 8.269 0 00-3.46.22 8.393 8.393 0 00-3 1.51 4.514 4.514 0 00-1.64 2.34 1.322 1.322 0 00.35 1.56c.551.311 1.127.579 1.72.8a7.514 7.514 0 012 1.26 6.003 6.003 0 011.64 3.11 17.28 17.28 0 01.43 5.32 25.616 25.616 0 01-1 5.67 14.149 14.149 0 01-2.16 4.54 4.003 4.003 0 01-3.2 1.86 6.068 6.068 0 01-2.77-.82 9.52 9.52 0 01-2.94-2.55 13.715 13.715 0 01-2.25-4.41 19.11 19.11 0 01-.78-6.32 71.25 71.25 0 006.58-9.69c.86-1.44 1.71-3.027 2.55-4.76a73.555 73.555 0 002.34-5.37A51.995 51.995 0 0083.31 74a42.948 42.948 0 001.13-6.1c.172-1.42.258-2.849.26-4.28a19.397 19.397 0 00-.39-4 9.78 9.78 0 00-1.3-3.29 7.11 7.11 0 00-2.64-2.38 7.62 7.62 0 00-3.89-.78c-1.548.07-3.066.454-4.46 1.13a15.002 15.002 0 00-4.2 3 13.866 13.866 0 00-3.12 4.93 57.772 57.772 0 00-3.93 10.88 70.147 70.147 0 00-2.08 12.54 63.977 63.977 0 00.26 12.46 35.866 35.866 0 002.064 8.745c-.291.3-.551.63-.774.985a10.985 10.985 0 01-3.38 3.2 5.083 5.083 0 01-4.33.17 3.872 3.872 0 01-2-1.95 13.992 13.992 0 01-1.3-3.68 31.95 31.95 0 01-.65-4.72 62.337 62.337 0 01-.13-5.11c.027-1.7.127-3.287.3-4.76.135-1.237.338-2.466.61-3.68.52-1.787.55-3.043.09-3.77a2.582 2.582 0 00-2-1.21 7.208 7.208 0 00-2.86.35 22.07 22.07 0 00-2.47.91c-.706.413-1.3.994-1.73 1.69a15.04 15.04 0 00-1.43 2.81 24.297 24.297 0 00-1.08 3.55 40.13 40.13 0 00-.69 4c-.133 3.063-.1 6.131.1 9.19a27.27 27.27 0 001.21 6.53 10.631 10.631 0 002.55 4.28 10.89 10.89 0 004.24 2.47c1.646.637 3.408.92 5.17.83a13.46 13.46 0 004.89-1.26 14.34 14.34 0 004.15-3 16.51 16.51 0 003.05-4.369 19.63 19.63 0 005.4 6.249 15.79 15.79 0 009.69 2.9 14.88 14.88 0 006.62-1.34 14.99 14.99 0 004.54-3.33 15.257 15.257 0 002.81-4.33 24.434 24.434 0 001.43-4.33 20.35 20.35 0 00.35-4.33 13.692 13.692 0 00-.43-3 6.687 6.687 0 00-1.13-2.51c.77.472 1.58.877 2.42 1.21.679.283 1.386.491 2.11.62.68.13 2.39.01 2.58.7.041.153.093.306.153.46.014.083.03.167.047.25a55.028 55.028 0 002.84 8.46 20.596 20.596 0 003 4.24 21.333 21.333 0 004.24 3.64 17.347 17.347 0 005.28 2.29c2.027.495 4.133.57 6.19.22a35.355 35.355 0 005.5-1.56 27.168 27.168 0 005.19-2.55 20.396 20.396 0 004.15-3.46 12.066 12.066 0 002.55-4.2 17.002 17.002 0 001-7 15.227 15.227 0 00-1.6-5.84 15.758 15.758 0 00-3.59-4.59 22.025 22.025 0 00-4.89-3.29 25.107 25.107 0 00-5.45-1.95 20.488 20.488 0 00-5.32-.56 17.036 17.036 0 003-2.55 31.358 31.358 0 003.11-3.77 30.647 30.647 0 002.6-4.41 14.428 14.428 0 001.38-4.67 10.602 10.602 0 00-.86-5.45 8.392 8.392 0 00-3.38-3.76 11.31 11.31 0 00-5.41-1.47 15.383 15.383 0 00-10.6 3.64 22.295 22.295 0 00-3.33 3.25 9.372 9.372 0 00-1.9 3.51 3.253 3.253 0 00.74 3.16c.4.562 1.09.846 1.77.73a3.696 3.696 0 001.69-1 13.694 13.694 0 001.47-1.64c.347-.471.725-.918 1.13-1.34a8.429 8.429 0 012.21-1.69 10.488 10.488 0 012.64-1 7.62 7.62 0 012.34-.22 1.512 1.512 0 011.39.86 5.002 5.002 0 01.86 3.85 8.187 8.187 0 01-1.86 3.42 25.006 25.006 0 01-3.33 3.16 91.02 91.02 0 00-3.46 2.9 12.454 12.454 0 00-2.38 2.73 2.274 2.274 0 000 2.64 5.003 5.003 0 002.86 2.68c1.299.421 2.64.696 4 .82 1.44.147 2.867.333 4.28.56a7.244 7.244 0 013.85 2 10.1 10.1 0 012.94 4.67c.516 1.726.605 3.552.26 5.32a11 11 0 01-2.25 4.8 9.082 9.082 0 01-4.59 3 12.188 12.188 0 01-6.34.67 11.204 11.204 0 01-4.59-2.12 13.824 13.824 0 01-3.11-3.42c-.81-1.27-2.85-6.52-3.4-7.38a2.832 2.832 0 00-.345-.438zM68.6 92.52h-.01l.01-.014c0-3.855.17-7.64.51-11.356.173-1.553.377-3.197.61-4.93.233-1.733.523-3.437.87-5.11a48.862 48.862 0 011.27-4.76 32.714 32.714 0 011.69-4.33 6.239 6.239 0 011.9-2.51 1.482 1.482 0 011.73-.09 3.593 3.593 0 011.21 2.12c.304 1.31.392 2.661.26 4a45.036 45.036 0 01-2.08 11 76.356 76.356 0 01-3.38 8.57 56.72 56.72 0 01-4.59 7.396v.014zM41.08 64.74a4.153 4.153 0 012.9-2.34 7.718 7.718 0 013.81.09 7.61 7.61 0 013.2 1.77 3.134 3.134 0 011.08 2.9 5.442 5.442 0 01-2.21 3.42c-1.24.953-3.1 1.313-5.58 1.08a3.239 3.239 0 01-1.86-.78 5.5 5.5 0 01-1.34-1.69 5.11 5.11 0 01-.56-2.21 4.083 4.083 0 01.56-2.24z" fill="#fff"/></svg>