<svg viewBox="0 0 800 800" xmlns="http://www.w3.org/2000/svg" fill-rule="evenodd" clip-rule="evenodd" stroke-linejoin="round" stroke-miterlimit="2"><circle cx="400" cy="400" r="400" fill="#e70b8f"/><circle cx="400" cy="400" r="400" fill="#ff009a" transform="scale(.96 .965)"/><path d="M673.29 462c24.676 0 44.71-20.034 44.71-44.71v-.58c0-24.676-20.034-44.71-44.71-44.71H162.71c-24.676 0-44.71 20.034-44.71 44.71v.58c0 24.676 20.034 44.71 44.71 44.71h510.58z" fill="#ed00a0"/><path d="M373 672.29c0 24.676 20.034 44.71 44.71 44.71h.58c24.676 0 44.71-20.034 44.71-44.71V161.71c0-24.676-20.034-44.71-44.71-44.71h-.58c-24.676 0-44.71 20.034-44.71 44.71v510.58z" fill="#ed00a0"/><g fill="#fff"><path d="M655.29 445c24.676 0 44.71-20.034 44.71-44.71v-.58c0-24.676-20.034-44.71-44.71-44.71H144.71c-24.676 0-44.71 20.034-44.71 44.71v.58c0 24.676 20.034 44.71 44.71 44.71h510.58z"/><path d="M355 655.29c0 24.676 20.034 44.71 44.71 44.71h.58c24.676 0 44.71-20.034 44.71-44.71V144.71c0-24.676-20.034-44.71-44.71-44.71h-.58c-24.676 0-44.71 20.034-44.71 44.71v510.58z"/></g></svg>