<svg viewBox="0 0 1280 1280" xmlns="http://www.w3.org/2000/svg" fill-rule="evenodd" clip-rule="evenodd" stroke-linejoin="round" stroke-miterlimit="2"><path d="M1065.427 1210.256v-1.56c-6.79-2.597-12.782-6.754-18.774-13.509-5.992-6.235-10.785-14.029-15.18-23.381-4.393-8.834-7.589-19.226-9.985-30.657-1.998-10.911-3.196-22.862-2.796-34.813h15.179c-1.199 10.392-.4 22.343 2.396 35.333 2.796 13.51 8.389 26.5 17.576 38.45 3.995 4.676 7.989 8.833 11.584 12.47 3.595 3.638 7.99 6.755 12.383 9.353 4.394 2.598 9.587 4.157 15.18 5.716 5.591 1.558 12.382 2.078 19.972 2.598h112.245V1230H1019.89v-19.744h45.537zm59.119-126.262h2.396c11.984 0 23.568-2.079 34.353-6.235 10.785-4.157 20.372-10.392 28.76-18.706 8.389-7.794 14.78-18.186 19.573-30.656 4.794-11.95 7.19-26.5 7.19-42.607 0-26.5-5.592-47.803-16.377-63.39-10.785-15.588-25.565-26.5-44.738-32.215V870.44c23.967 5.715 42.341 18.705 55.124 37.93 12.782 19.745 19.173 45.725 19.173 77.94 0 19.744-2.796 36.891-8.388 51.44-5.193 15.068-12.783 27.019-22.37 36.891-9.187 10.392-20.371 17.666-33.553 22.343-12.783 4.676-26.763 7.274-41.543 7.274-14.38 0-27.961-2.598-41.543-7.794-13.181-4.676-24.765-12.47-34.752-22.343-9.586-9.872-17.975-22.862-23.967-37.93-5.991-15.068-8.788-32.735-8.788-52.999 0-18.705 2.797-35.332 7.99-49.881 5.192-14.03 12.782-25.98 21.57-35.852 9.587-9.872 19.972-17.147 31.956-22.343 12.383-4.676 25.165-7.274 39.146-7.274l8.788.52v215.632zm-13.182-195.888c-11.185.52-21.57 3.118-31.956 7.274-9.986 4.157-18.774 10.392-26.364 18.186-7.59 8.314-13.581 18.186-17.975 29.617-4.394 11.951-6.79 24.94-6.79 40.01 0 16.107 2.396 30.136 6.79 42.086 4.793 11.951 11.185 22.343 18.375 30.657 7.59 8.313 16.776 14.548 26.763 19.225 9.986 4.676 20.372 7.274 31.157 8.313V888.106zM940 802.373h123.83v-1.04c-7.59-3.637-14.38-8.313-20.772-15.068-5.992-6.235-10.785-13.51-15.18-22.342-4.393-8.314-7.589-17.667-9.586-27.539-1.997-9.872-3.196-20.264-3.196-30.656 0-15.588 1.598-28.578 4.394-40.009 2.797-10.911 6.791-19.745 11.584-26.5 4.794-6.754 10.386-12.47 15.978-16.626 5.992-3.638 12.383-6.755 18.375-8.314 5.992-1.559 11.984-2.598 17.576-3.118 5.992-.52 10.785-.52 15.179-.52h127.025v19.746h-129.821c-5.193 0-11.584.52-19.174 1.558-7.59 1.04-15.179 4.157-22.369 8.833-6.79 5.196-12.782 12.99-17.975 22.863-5.193 10.392-7.59 24.42-7.59 42.607 0 15.068 1.998 28.577 6.391 40.528 4.394 11.95 9.987 21.823 17.576 30.137 7.99 8.313 16.777 14.548 27.163 18.705 10.785 4.676 22.369 6.755 34.752 6.755h111.047v19.744H940v-19.744zm244.463-427.108v1.04c5.992 3.117 11.983 7.793 17.176 13.509 5.593 5.715 10.386 12.99 14.78 21.303 4.394 8.833 7.59 18.186 9.986 29.097 2.397 10.912 3.595 22.343 3.595 35.333 0 28.578-4.793 50.4-14.38 65.989-9.187 15.587-23.967 23.381-43.54 23.381-11.983 0-21.97-3.117-29.56-9.352-7.589-6.235-13.58-14.03-17.974-23.902-4.394-9.352-7.19-19.744-9.188-31.695-1.997-11.431-3.195-22.343-3.994-33.254l-1.998-30.656c-.798-14.03-1.997-25.46-3.994-33.774-1.598-7.794-3.994-14.03-7.19-18.186-2.796-4.157-6.79-6.755-11.584-7.794-4.793-1.04-10.785-1.559-17.975-1.559-5.593 0-10.785 1.56-15.579 4.157-4.793 2.598-9.187 7.274-12.782 12.99-3.595 5.715-6.79 13.51-8.788 22.862-1.997 9.353-3.196 20.784-3.196 34.293 0 23.902 4.394 43.127 13.582 57.676 9.187 15.068 22.768 22.862 41.143 24.42v19.745c-22.769-1.558-39.546-10.911-51.13-28.577-11.184-17.147-16.777-42.088-16.777-74.303 0-32.215 4.794-55.596 14.38-70.665 9.987-14.548 22.77-21.823 38.348-21.823h119.435c2.796 0 5.992 0 8.788-.52 2.796 0 5.592-.519 7.989-1.558 2.397-1.04 4.394-2.598 5.592-5.196 1.598-2.598 2.397-5.716 2.397-10.392 0-3.637-.4-8.314-1.198-14.549h12.782c1.198 5.196 1.598 10.392 1.598 16.108 0 7.794-.8 14.029-2.397 18.705-1.598 4.677-3.595 8.314-6.391 10.912-2.796 2.598-5.992 4.156-9.587 4.676-3.595 1.04-7.19 1.559-11.584 1.559h-10.785zm-75.895 0c4.394 4.676 7.59 11.95 9.187 21.823 1.598 10.392 2.796 21.303 3.595 33.254l2.397 33.254c.799 9.873 1.997 19.225 3.195 29.098 1.598 9.872 3.995 18.185 7.59 25.98 3.595 7.793 8.388 14.548 13.98 19.224 5.992 4.677 13.981 7.275 23.568 7.275 15.18 0 26.364-6.235 33.554-18.706 7.59-12.47 11.184-29.617 11.184-51.44 0-22.342-3.195-40.528-9.586-53.518-5.992-12.99-13.182-23.382-21.57-30.137-7.99-6.754-15.58-11.43-23.568-13.51-7.59-1.558-12.383-2.597-15.18-2.597h-38.346zM940 287.973v-19.745h123.43v-1.04c-7.99-3.636-15.18-9.352-21.171-16.107-5.592-6.754-10.785-15.068-15.179-23.901-3.995-8.833-7.19-18.705-9.187-29.097-1.998-10.392-2.797-21.304-2.797-32.215 0-19.745 2.797-36.892 7.99-51.44 5.192-14.03 12.782-25.98 21.97-35.852 9.187-9.873 19.972-17.147 32.355-21.823 12.382-4.677 25.964-6.755 40.344-6.755 24.366 0 43.94 4.157 58.719 12.99 14.78 8.833 26.364 19.225 33.953 31.175 7.99 11.951 13.182 24.941 15.978 37.93 2.397 12.99 3.595 24.422 3.595 33.775 0 17.666-1.997 32.734-6.391 44.685-4.394 12.47-9.187 22.862-15.18 30.656-5.591 7.794-11.184 14.03-16.776 18.186-5.592 4.157-9.587 6.755-12.383 7.794v1.04h45.937v19.744H940zm276.818-122.105c0-17.667-2.796-32.735-8.788-44.686-5.991-11.95-13.58-21.823-23.168-29.617-9.187-7.793-19.972-12.99-31.956-16.627-11.584-3.637-23.567-5.196-35.151-5.196-11.584 0-22.37 2.079-33.154 5.716-10.785 4.157-20.372 10.392-28.76 18.186-7.99 8.313-14.78 18.186-19.973 30.136-5.193 11.951-7.59 25.98-7.59 42.088 0 17.146 2.397 32.215 6.79 45.205 4.395 12.99 10.786 23.381 18.775 31.695 7.989 8.313 17.576 14.549 28.361 18.705 10.785 4.157 22.769 6.235 35.55 6.235 12.384 0 24.767-2.078 36.75-5.715 11.984-3.637 22.37-9.872 31.557-18.186 9.187-7.794 16.777-18.186 22.369-31.176 5.592-12.99 8.388-28.577 8.388-46.763z" fill="#e6a11d" fill-rule="nonzero"/><g fill="#e6a11d"><path d="M890 1280H0V665h100.894C113.704 843.745 262.986 985 445 985c182.014 0 331.296-141.255 344.106-320H890v615zm0-665H789.106C776.296 436.255 627.014 295 445 295c-182.014 0-331.296 141.255-344.106 320H0V0h890v615z"/><path d="M738.454 665C723.102 788.492 595.243 885 440 885s-283.102-96.508-298.454-220h596.908zm-596.908-50C156.898 491.508 284.757 395 440 395s283.102 96.508 298.454 220H141.546z"/></g></svg>