<svg viewBox="0 0 1236 1280" xmlns="http://www.w3.org/2000/svg" fill-rule="evenodd" clip-rule="evenodd" stroke-linejoin="round" stroke-miterlimit="2"><path d="M890 1280H0V665h100.894C113.704 843.745 262.986 985 445 985c182.014 0 331.296-141.255 344.106-320H890v615zm0-665H789.106C776.296 436.255 627.014 295 445 295c-182.014 0-331.296 141.255-344.106 320H0V0h890v615z" fill="#e6a11d"/><path d="M738.454 665C723.102 788.492 595.243 885 440 885s-283.102-96.508-298.454-220h596.908zm-596.908-50C156.898 491.508 284.757 395 440 395s283.102 96.508 298.454 220H141.546z" fill="#e6a11d"/><path d="M940 1279.998v-20.191h192.849l-111.306-168.436v-29.224l78.28 119.552 131.284-128.053v27.63l-119.46 116.364 40.364 62.167h79.096v20.19H940zm249.52-426.137v1.063c6.116 3.188 12.232 7.97 17.532 13.815 5.708 5.844 10.601 13.283 15.086 21.785 4.485 9.033 7.746 18.597 10.193 29.755 2.446 11.158 3.67 22.848 3.67 36.131 0 29.224-4.893 51.54-14.679 67.48-9.377 15.941-24.462 23.911-44.44 23.911-12.232 0-22.425-3.188-30.171-9.564-7.747-6.376-13.862-14.346-18.347-24.442-4.485-9.564-7.34-20.19-9.378-32.412-2.038-11.69-3.261-22.847-4.077-34.006l-2.038-31.349c-.816-14.346-2.039-26.036-4.078-34.537-1.63-7.97-4.077-14.346-7.338-18.597-2.854-4.25-6.932-6.907-11.824-7.97-4.893-1.063-11.008-1.594-18.347-1.594-5.708 0-11.008 1.594-15.901 4.25-4.893 2.657-9.377 7.44-13.047 13.284-3.67 5.845-6.931 13.815-8.97 23.38-2.038 9.563-3.261 21.253-3.261 35.068 0 24.442 4.485 44.101 13.862 58.979 9.377 15.409 23.24 23.379 41.994 24.973v20.19c-23.24-1.593-40.363-11.157-52.187-29.223-11.416-17.534-17.124-43.039-17.124-75.982s4.893-56.854 14.678-72.262c10.193-14.878 23.24-22.317 39.14-22.317h121.907c2.854 0 6.115 0 8.97-.531 2.853 0 5.707-.532 8.154-1.594 2.446-1.063 4.485-2.657 5.708-5.314 1.63-2.656 2.446-5.844 2.446-10.627 0-3.719-.408-8.501-1.223-14.877h13.047c1.223 5.313 1.63 10.627 1.63 16.472 0 7.97-.815 14.346-2.446 19.128-1.63 4.782-3.67 8.501-6.523 11.158-2.854 2.657-6.116 4.25-9.785 4.782-3.67 1.063-7.34 1.594-11.824 1.594h-11.008zm-77.465 0c4.485 4.782 7.747 12.221 9.378 22.317 1.63 10.626 2.854 21.785 3.669 34.005l2.446 34.006c.816 10.096 2.039 19.66 3.262 29.756 1.63 10.095 4.077 18.597 7.747 26.567 3.669 7.97 8.562 14.877 14.27 19.66 6.115 4.781 14.27 7.438 24.055 7.438 15.493 0 26.909-6.376 34.248-19.128 7.746-12.752 11.416-30.287 11.416-52.603 0-22.848-3.262-41.445-9.786-54.728-6.115-13.284-13.454-23.91-22.016-30.818-8.154-6.908-15.901-11.69-24.055-13.815-7.747-1.594-12.64-2.657-15.493-2.657h-39.14zm-90.512-84.483v-20.191h44.848v-1.063c-7.746-3.72-14.677-8.501-21.2-15.409-6.117-6.376-11.01-13.815-15.494-22.848-4.485-8.501-7.747-18.065-9.785-28.16-2.039-10.096-3.262-20.723-3.262-31.35 0-15.94 1.631-29.224 4.485-40.913 2.854-11.159 6.931-20.191 11.824-27.099 4.892-6.907 10.6-12.752 16.308-17.003 6.116-3.72 12.64-6.907 18.755-8.501 6.116-1.594 12.231-2.657 17.94-3.188 6.115-.532 11.008-.532 15.493-.532h129.653v20.191H1098.6c-5.3 0-11.824.532-19.57 1.594-7.747 1.063-15.494 4.251-22.833 9.033-6.93 5.314-13.046 13.284-18.347 23.38-5.3 10.626-7.746 24.972-7.746 43.57 0 15.408 2.038 29.223 6.523 41.444 4.485 12.22 10.193 22.316 17.94 30.818 8.154 8.501 17.123 14.877 27.724 19.128 11.008 4.782 22.832 6.908 35.471 6.908h113.345v20.19h-209.565zm139.845-285.336c9.786-.532 18.348-3.72 25.686-8.502 7.747-4.782 13.863-11.69 19.163-19.66 5.3-7.438 9.377-17.003 12.231-27.63 2.854-10.626 4.078-22.316 4.078-34.537 0-9.032-.816-18.597-2.04-28.692-.814-10.096-3.26-19.128-6.522-28.161-3.262-8.502-7.747-15.41-13.863-21.254-5.708-5.845-13.047-8.501-22.016-8.501-11.824 0-20.386 4.782-26.502 13.814-6.115 9.033-10.6 20.723-13.862 34.538-3.262 14.346-5.708 29.224-8.154 45.164-2.039 16.471-4.893 31.349-8.97 45.164-4.077 14.346-9.785 26.036-17.532 35.069-7.338 9.032-18.347 13.814-32.617 13.814-10.192 0-18.754-3.188-26.093-9.032-6.524-5.845-12.232-13.815-16.309-23.38-4.077-9.032-6.931-19.66-8.97-31.349a253.503 253.503 0 01-2.446-35.068c0-14.347 1.223-27.63 3.67-39.851 2.446-12.22 6.523-23.379 11.823-32.412 5.3-9.033 12.232-15.94 20.794-21.254 8.562-4.782 18.754-7.438 30.578-7.438v20.19c-9.377 0-17.532 2.126-24.463 5.845-6.93 4.251-12.231 10.096-16.716 17.003-4.077 7.44-7.339 15.94-9.377 26.036-2.039 10.096-2.854 20.723-2.854 31.88 0 9.034.815 18.598 2.038 27.63 1.223 9.565 3.67 18.066 6.931 25.505 3.262 7.439 7.34 13.284 12.64 18.066 5.3 5.313 11.416 7.438 18.754 7.438 8.562 0 15.086-2.656 20.386-7.97 5.3-5.313 9.377-12.22 12.231-21.253 3.262-8.502 5.708-18.066 7.747-29.224 2.039-10.627 3.67-21.254 5.708-32.412 2.039-13.284 4.077-26.036 6.523-38.257 2.854-11.69 6.116-21.785 10.601-30.818 4.485-8.501 10.6-15.409 17.532-20.19 6.93-4.783 15.9-7.44 26.909-7.44 11.416 0 20.793 3.189 28.132 10.096 7.339 6.907 13.047 15.409 17.532 25.504 4.485 10.096 7.746 21.785 9.785 34.006 1.63 12.753 2.446 24.973 2.446 37.194 0 15.41-1.63 29.756-4.485 43.04-3.261 13.814-8.154 24.972-14.677 35.068-6.116 10.095-13.863 17.534-23.24 23.379-9.378 5.845-19.978 8.501-32.21 9.033v-20.191zm-35.063-233.249c-15.085 0-28.948-2.657-42.402-8.502-13.047-5.313-24.463-13.283-34.656-23.91-10.193-10.627-17.94-23.91-24.055-39.32-5.708-15.409-8.562-33.474-8.562-53.665 0-20.191 2.854-38.257 8.562-53.666 6.116-15.409 13.862-28.692 24.055-39.32 10.193-10.626 21.61-18.596 34.656-24.44 13.454-5.314 27.317-7.971 42.402-7.971 15.086 0 28.948 2.657 42.402 7.97 13.455 5.845 24.87 13.815 34.656 24.442 10.193 10.627 17.94 23.91 23.647 39.32 6.116 15.408 8.97 33.474 8.97 53.665 0 20.19-2.854 38.256-8.97 53.665-5.708 15.41-13.454 28.693-23.647 39.32-9.785 10.627-21.201 18.597-34.656 23.91-13.454 5.845-27.316 8.502-42.402 8.502zm0-20.191c12.64 0 24.463-2.126 35.879-6.908 11.824-4.782 22.016-11.158 30.986-20.19 8.97-9.034 15.901-19.66 21.201-32.944 5.3-13.284 8.155-28.161 8.155-45.164s-2.854-31.88-8.155-45.164c-5.3-13.284-12.231-23.91-21.2-32.944-8.97-9.032-19.163-15.408-30.987-20.19-11.416-4.783-23.24-6.908-35.879-6.908s-24.463 2.125-36.286 6.907c-11.416 4.783-21.61 11.159-30.579 20.191-8.97 9.033-15.9 19.66-21.609 32.944-5.3 13.283-7.746 28.16-7.746 45.164 0 17.003 2.446 31.88 7.746 45.164 5.708 13.283 12.64 23.91 21.61 32.943 8.969 9.033 19.162 15.41 30.578 20.191 11.823 4.782 23.647 6.908 36.286 6.908z" fill="#e6a11d" fill-rule="nonzero"/></svg>